<svg width="24" height="24" viewBox="0 0 24 24" fill="none" xmlns="http://www.w3.org/2000/svg">
<mask id="mask0" mask-type="alpha" maskUnits="userSpaceOnUse" x="0" y="0" width="24" height="24">
<path fill-rule="evenodd" clip-rule="evenodd" d="M0.00341797 0.0234375H23.9766V23.9418H0.00341797V0.0234375Z" fill="white"/>
</mask>
<g mask="url(#mask0)">
<path fill-rule="evenodd" clip-rule="evenodd" d="M23.9766 11.9826C23.9766 18.5873 18.609 23.9418 11.9882 23.9418C5.36716 23.9418 -0.00012207 18.5873 -0.00012207 11.9826C-0.00012207 5.37766 5.36716 0.0234375 11.9882 0.0234375C18.609 0.0234375 23.9766 5.37766 23.9766 11.9826Z" fill="#D22215"/>
</g>
<path fill-rule="evenodd" clip-rule="evenodd" d="M15.9991 7.13965H7.9773C6.40349 7.13965 5.12756 8.41247 5.12756 9.98228V13.9827C5.12756 15.5527 6.40349 16.8253 7.9773 16.8253H15.9991C17.573 16.8253 18.8487 15.5525 18.8487 13.9827V9.98228C18.8487 8.41247 17.5727 7.13965 15.9991 7.13965ZM14.0718 12.1771L10.3199 13.9622C10.2198 14.0099 10.1043 13.9371 10.1043 13.8267V10.1449C10.1043 10.0327 10.2228 9.96014 10.3229 10.0108L14.0749 11.9075C14.1867 11.9638 14.1847 12.1235 14.0718 12.1771Z" fill="white"/>
</svg>