<svg width="35" height="35" viewBox="0 0 35 35" fill="none" xmlns="http://www.w3.org/2000/svg">
<path d="M30.0804 7.06641H4.9196C4.68236 7.06668 4.45493 7.16107 4.28721 7.32886C4.11949 7.49664 4.02519 7.72412 4.025 7.96136V9.76176C4.025 9.84471 4.11495 9.93991 4.18845 9.97841L17.4136 17.5325C17.4474 17.5518 17.4858 17.5618 17.5249 17.5615C17.5647 17.5616 17.6039 17.551 17.6383 17.5307L30.4637 9.98576C30.5358 9.94551 30.7269 9.83911 30.7986 9.79011C30.8854 9.73096 30.975 9.67741 30.975 9.57136V7.96101C30.9747 7.72383 30.8804 7.49645 30.7127 7.32874C30.545 7.16103 30.3176 7.06668 30.0804 7.06641Z" fill="#9D9CB5"/>
<path d="M30.8634 12.4759C30.8289 12.4563 30.7899 12.446 30.7503 12.4463C30.7107 12.4465 30.6718 12.4572 30.6376 12.4773L23.3797 16.7476C23.3507 16.7645 23.326 16.7876 23.3072 16.8154C23.2885 16.8431 23.2762 16.8747 23.2713 16.9078C23.2665 16.9409 23.2691 16.9747 23.2791 17.0067C23.289 17.0386 23.3061 17.0679 23.3289 17.0924L30.5879 24.9173C30.6087 24.9399 30.634 24.958 30.6621 24.9702C30.6903 24.9825 30.7206 24.9888 30.7514 24.9887C30.8106 24.9887 30.8675 24.9651 30.9094 24.9231C30.9513 24.8812 30.9749 24.8244 30.975 24.7651V12.6701C30.9752 12.6308 30.9649 12.5921 30.9453 12.558C30.9257 12.5239 30.8974 12.4956 30.8634 12.4759Z" fill="#9D9CB5"/>
<path d="M21.2881 18.1824C21.2536 18.1449 21.2073 18.1203 21.1569 18.1128C21.1065 18.1053 21.0551 18.1153 21.0112 18.1411L18.102 19.8529C17.9316 19.9514 17.7384 20.0039 17.5416 20.0052C17.3447 20.0065 17.1509 19.9565 16.9792 19.8603L14.419 18.3976C14.3776 18.3741 14.3299 18.3643 14.2826 18.3697C14.2354 18.3752 14.191 18.3955 14.1561 18.4277L4.4338 27.4458C4.40831 27.4697 4.38875 27.4991 4.37665 27.5319C4.36456 27.5646 4.36028 27.5997 4.36416 27.6344C4.36804 27.669 4.37996 27.7023 4.39898 27.7316C4.41799 27.7608 4.44358 27.7852 4.4737 27.8028C4.6249 27.8917 4.77085 27.9341 4.91925 27.9341H29.8228C29.8664 27.9342 29.909 27.9215 29.9454 27.8975C29.9818 27.8735 30.0104 27.8394 30.0275 27.7993C30.045 27.7595 30.0504 27.7154 30.0431 27.6726C30.0357 27.6297 30.016 27.5899 29.9863 27.5582L21.2881 18.1824Z" fill="#9D9CB5"/>
<path d="M12.0169 17.3604C12.0427 17.3366 12.0624 17.3071 12.0747 17.2742C12.0869 17.2414 12.0912 17.2061 12.0873 17.1712C12.0834 17.1364 12.0713 17.1029 12.0521 17.0736C12.0329 17.0443 12.007 17.0199 11.9767 17.0024L4.35855 12.6512C4.32455 12.6319 4.28608 12.6218 4.24699 12.6221C4.20789 12.6223 4.16954 12.6328 4.13577 12.6525C4.102 12.6722 4.074 12.7004 4.05456 12.7343C4.03512 12.7683 4.02493 12.8067 4.025 12.8458V24.2628C4.02475 24.3064 4.0373 24.3491 4.06108 24.3857C4.08487 24.4222 4.11885 24.451 4.15882 24.4684C4.19878 24.4858 4.24299 24.4912 4.28595 24.4837C4.32892 24.4763 4.36876 24.4564 4.40055 24.4266L12.0169 17.3604Z" fill="#9D9CB5"/>
</svg>
