<svg width="24" height="24" viewBox="0 0 24 24" fill="none" xmlns="http://www.w3.org/2000/svg">
<mask id="mask0" mask-type="alpha" maskUnits="userSpaceOnUse" x="0" y="0" width="24" height="24">
<path fill-rule="evenodd" clip-rule="evenodd" d="M0.00341797 0.0234375H23.9766V23.9418H0.00341797V0.0234375Z" fill="white"/>
</mask>
<g mask="url(#mask0)">
<path fill-rule="evenodd" clip-rule="evenodd" d="M23.9766 11.9826C23.9766 18.5873 18.609 23.9418 11.9882 23.9418C5.36716 23.9418 -0.00012207 18.5873 -0.00012207 11.9826C-0.00012207 5.37766 5.36716 0.0234375 11.9882 0.0234375C18.609 0.0234375 23.9766 5.37766 23.9766 11.9826Z" fill="url(#paint0_linear)"/>
</g>
<path fill-rule="evenodd" clip-rule="evenodd" d="M14.7773 5.12793H9.22235C6.96479 5.12793 5.12811 6.96461 5.12811 9.22217V14.7771C5.12811 17.0346 6.96479 18.8715 9.22235 18.8715H14.7775C17.0348 18.8715 18.8717 17.0348 18.8717 14.7771V9.22217C18.8717 6.96461 17.035 5.12793 14.7773 5.12793ZM17.4891 14.7773C17.4891 16.2748 16.275 17.4889 14.7775 17.4889H9.22235C7.72479 17.4889 6.51072 16.2748 6.51072 14.7773V9.22217C6.51072 7.72461 7.72479 6.51054 9.22235 6.51054H14.7775C16.275 6.51054 17.4891 7.72461 17.4891 9.22217V14.7773Z" fill="white"/>
<path fill-rule="evenodd" clip-rule="evenodd" d="M12 8.41016C10.0205 8.41016 8.41016 10.0205 8.41016 12C8.41016 13.9793 10.0205 15.5896 12 15.5896C13.9792 15.5896 15.5896 13.9793 15.5896 12C15.5896 10.0205 13.9792 8.41016 12 8.41016ZM12 14.1934C10.7885 14.1934 9.80641 13.2116 9.80641 12C9.80641 10.7885 10.7885 9.80643 12 9.80643C13.2113 9.80643 14.1934 10.7885 14.1934 12C14.1934 13.2113 13.2113 14.1934 12 14.1934Z" fill="white"/>
<defs>
<linearGradient id="paint0_linear" x1="8.59823" y1="-7.6694" x2="-6.77186" y2="16.283" gradientUnits="userSpaceOnUse">
<stop stop-color="#8928C5"/>
<stop offset="0.411195" stop-color="#BD2791"/>
<stop offset="1" stop-color="#DEA13C"/>
</linearGradient>
</defs>
</svg>