<svg width="33" height="33" viewBox="0 0 33 33" fill="none" xmlns="http://www.w3.org/2000/svg">
<path d="M26.125 12.375C26.125 11.111 25.876 9.85943 25.3923 8.69167C24.9086 7.52391 24.1997 6.46286 23.3059 5.5691C22.4121 4.67533 21.3511 3.96636 20.1833 3.48266C19.0156 2.99896 17.764 2.75 16.5 2.75C15.236 2.75 13.9844 2.99896 12.8167 3.48266C11.6489 3.96636 10.5879 4.67533 9.6941 5.5691C8.80033 6.46286 8.09136 7.52391 7.60766 8.69167C7.12396 9.85943 6.875 11.111 6.875 12.375C6.875 14.2821 7.43875 16.0559 8.39438 17.5519H8.38338C11.6284 22.6325 16.5 30.25 16.5 30.25L24.6166 17.5519H24.607C25.5976 16.0069 26.1244 14.2103 26.125 12.375ZM16.5 16.5C15.406 16.5 14.3568 16.0654 13.5832 15.2918C12.8096 14.5182 12.375 13.469 12.375 12.375C12.375 11.281 12.8096 10.2318 13.5832 9.45818C14.3568 8.6846 15.406 8.25 16.5 8.25C17.594 8.25 18.6432 8.6846 19.4168 9.45818C20.1904 10.2318 20.625 11.281 20.625 12.375C20.625 13.469 20.1904 14.5182 19.4168 15.2918C18.6432 16.0654 17.594 16.5 16.5 16.5Z" fill="#9D9CB5"/>
</svg>