<svg width="24" height="27" viewBox="0 0 24 27" fill="none" xmlns="http://www.w3.org/2000/svg">
<path d="M12 6.47578C8.10536 6.47578 4.93929 9.59238 4.93393 13.4262C4.93393 14.7393 5.30893 16.0207 6.01607 17.1229L6.18214 17.3865L5.46964 19.9494L8.14286 19.2586L8.4 19.4115C9.48214 20.0443 10.725 20.3818 11.9946 20.3818H12C15.8893 20.3818 19.1411 17.2652 19.1411 13.4314C19.1411 11.5752 18.3268 9.82969 16.9929 8.5166C15.6536 7.19824 13.8857 6.47578 12 6.47578ZM16.1518 16.4109C15.975 16.9014 15.1286 17.3443 14.7214 17.4023C14.0464 17.5025 13.5214 17.4498 12.1768 16.8803C10.05 15.9732 8.65714 13.8639 8.55 13.7268C8.44286 13.5896 7.68214 12.593 7.68214 11.5646C7.68214 10.5363 8.22857 10.0301 8.42679 9.81914C8.61964 9.6082 8.85 9.55547 8.99464 9.55547C9.13393 9.55547 9.27857 9.55547 9.40179 9.56074C9.53036 9.56602 9.70714 9.51328 9.87857 9.91934C10.0554 10.3359 10.4786 11.3643 10.5321 11.4697C10.5857 11.5752 10.6232 11.6965 10.5482 11.8336C10.1411 12.6352 9.70714 12.6035 9.92679 12.9727C10.7464 14.3596 11.5661 14.8395 12.8143 15.4564C13.0286 15.5619 13.1518 15.5461 13.275 15.4037C13.3982 15.2666 13.8054 14.792 13.9446 14.5863C14.0839 14.3754 14.2286 14.4123 14.4214 14.4809C14.6143 14.5494 15.6589 15.0557 15.8732 15.1611C16.0875 15.2666 16.2268 15.3193 16.2804 15.4037C16.3286 15.5039 16.3286 15.9258 16.1518 16.4109ZM21.4286 1.6875H2.57143C1.15179 1.6875 0 2.82129 0 4.21875V22.7812C0 24.1787 1.15179 25.3125 2.57143 25.3125H21.4286C22.8482 25.3125 24 24.1787 24 22.7812V4.21875C24 2.82129 22.8482 1.6875 21.4286 1.6875ZM11.9946 21.7898C10.5696 21.7898 9.17143 21.4365 7.93393 20.7721L3.42857 21.9375L4.63393 17.6027C3.88929 16.3371 3.49821 14.8975 3.49821 13.4209C3.50357 8.81191 7.3125 5.0625 11.9946 5.0625C14.2661 5.0625 16.3982 5.93262 18.0054 7.51465C19.6071 9.09668 20.5714 11.1955 20.5714 13.4314C20.5714 18.0404 16.6768 21.7898 11.9946 21.7898Z" fill="#9D9CB5"/>
</svg>
