<svg width="16" height="16" viewBox="0 0 16 16" fill="none" xmlns="http://www.w3.org/2000/svg">
<rect opacity="0.01" width="16" height="16" fill="#D8D8D8"/>
<path fill-rule="evenodd" clip-rule="evenodd" d="M3.36572 7.50389C2.34806 6.88681 1.73807 6.51594 1.53574 6.39092C1.16657 6.17228 0.818212 5.87118 0.491229 5.48868C0.163697 5.10559 0 4.75018 0 4.42198C0 4.01551 0.123561 3.67701 0.370271 3.40635C0.617529 3.13533 0.970129 3 1.42875 3H14.5712C14.9581 3 15.2932 3.12214 15.5756 3.36703C15.8582 3.61192 16 3.90644 16 4.25009C16 4.66172 15.8538 5.05452 15.5622 5.42959C15.2707 5.80465 14.9078 6.12494 14.4733 6.39044L13.7285 6.8429C11.9232 7.93959 10.7786 8.63492 10.2947 8.92971C10.2354 8.96615 10.1085 9.04574 9.91485 9.168C9.7217 9.29063 9.56115 9.3894 9.43321 9.46479C9.30485 9.54067 9.1502 9.62494 8.96883 9.71903C8.78732 9.81229 8.61609 9.88301 8.45568 9.92976C8.29459 9.97663 8.14582 10 8.00884 10H7.99116C7.85418 10 7.70541 9.97663 7.54432 9.92976C7.38377 9.88301 7.21254 9.81277 7.03117 9.71903C6.84926 9.62494 6.6946 9.54067 6.56679 9.46479C6.43885 9.3894 6.2783 9.29063 6.08461 9.168C5.89146 9.04574 5.76461 8.96615 5.70516 8.92971C5.16365 8.59672 4.38407 8.12144 3.36572 7.50389ZM10.6607 10.1698C11.6726 9.56813 13.1548 8.72425 15.1069 7.63854C15.4462 7.44761 15.7437 7.23484 16 7V12.8259C16 13.1491 15.8603 13.4253 15.5804 13.6553C15.3006 13.8853 14.964 14 14.5712 14H1.42875C1.03588 14 0.699309 13.8853 0.419448 13.6553C0.139725 13.4253 0 13.1491 0 12.8259V7C0.261642 7.23968 0.562324 7.45245 0.901636 7.63854C3.05641 8.84167 4.53544 9.68555 5.33927 10.1698C5.67844 10.3755 5.95406 10.5356 6.16488 10.6503C6.37625 10.7656 6.65775 10.883 7.00871 11.0026C7.3598 11.1227 7.68719 11.1825 7.99116 11.1825H8.00884C8.31281 11.1825 8.63965 11.1227 8.99129 11.0026C9.34225 10.883 9.62375 10.7656 9.83457 10.6503C10.0459 10.5356 10.3216 10.3755 10.6607 10.1698Z" fill="#DCDEE3"/>
</svg>
