<svg width="16" height="17" viewBox="0 0 16 17" fill="none" xmlns="http://www.w3.org/2000/svg">
<rect opacity="0.01" y="0.398438" width="16" height="16" fill="#D8D8D8"/>
<path fill-rule="evenodd" clip-rule="evenodd" d="M14.9934 12.2596C15.0229 12.4706 14.9537 12.6543 14.7858 12.8104L12.8147 14.6281C12.7257 14.7199 12.6096 14.798 12.4664 14.8622C12.3231 14.9265 12.1823 14.9678 12.044 14.9862C12.0341 14.9862 12.0044 14.9885 11.955 14.9931C11.9057 14.9977 11.8415 15 11.7624 15C11.5747 15 11.2708 14.9701 10.8509 14.9105C10.4309 14.8508 9.91713 14.7039 9.30958 14.4698C8.70192 14.2356 8.01276 13.8845 7.24203 13.4163C6.47141 12.9481 5.65124 12.3054 4.78179 11.4884C4.09016 10.8548 3.51712 10.2489 3.0626 9.67054C2.60805 9.09215 2.24255 8.55739 1.96584 8.06618C1.68916 7.57505 1.48163 7.12973 1.34341 6.73032C1.20504 6.33106 1.11117 5.98672 1.06173 5.69754C1.0123 5.40834 0.992563 5.18112 1.00249 5.01587C1.0123 4.85063 1.01726 4.75879 1.01726 4.74042C1.03703 4.61188 1.08147 4.48114 1.15067 4.34796C1.21984 4.21481 1.30378 4.10702 1.40265 4.02438L3.37382 2.19281C3.51216 2.06427 3.67027 2 3.84811 2C3.97652 2 4.09016 2.03437 4.1889 2.10326C4.28774 2.17217 4.37171 2.25708 4.44088 2.35806L6.0267 5.15356C6.1156 5.30044 6.14034 5.46119 6.10083 5.63558C6.06133 5.81005 5.97739 5.95693 5.84886 6.07625L5.12268 6.751C5.10294 6.76945 5.08557 6.79924 5.07079 6.84053C5.05599 6.88185 5.04854 6.91636 5.04854 6.94381C5.08805 7.13665 5.17695 7.35695 5.31532 7.6048C5.43393 7.82521 5.61673 8.09374 5.86375 8.41051C6.11076 8.72717 6.46148 9.09215 6.91604 9.50529C7.36063 9.92762 7.75582 10.2558 8.1017 10.4899C8.44743 10.724 8.73643 10.8962 8.96867 11.0064C9.20079 11.1165 9.37875 11.183 9.5022 11.206L9.68737 11.2404C9.70713 11.2404 9.73928 11.2335 9.78375 11.2197C9.82822 11.206 9.86037 11.1899 9.88013 11.1715L10.7249 10.3728C10.9028 10.2259 11.1102 10.1524 11.3473 10.1524C11.5154 10.1524 11.6487 10.18 11.7475 10.2351H11.7624L14.6228 11.805C14.8303 11.9244 14.9537 12.0758 14.9934 12.2596Z" fill="#DCDEE3"/>
</svg>
